# xmcd
#
# Track frame offsets: 
#        183
#        15338
#        26630
#        40303
#        56480
#        66253
#        82853
#        96653
#        108915
#        120948
#        135655
#        148188
#        161645
#        178545
#        194048
#        208003
#        222355
#        234835
#        246670
#        263395
#        281410
#
# Disc length: 3887 seconds
#
# Revision: 8
# Processed by: cddbd v1.5.2PL0 Copyright (c) Steve Scherf et al.
# Submitted via: ExactAudioCopy v0.99pb4
#
DISCID=2d0f2d15
DTITLE=David Wilcox - Over 60 Minutes With...
DYEAR=1987
DGENRE=Rock
TTITLE0=The Grind
TTITLE1=Downtown Came Uptown
TTITLE2=Preachin' The Blues
TTITLE3=Riverboat Fantasy
TTITLE4=Too Cool
TTITLE5=Bad Apple
TTITLE6=Freeze To Me
TTITLE7=Mow 'em Down
TTITLE8=Shake It Baby
TTITLE9=When You Mistreat Her
TTITLE10=My Eyes Keep Me In Trouble
TTITLE11=Brain Fever
TTITLE12=Somethin's Shakin'
TTITLE13=Do The Bearcat
TTITLE14=Hot, Hot Papa
TTITLE15=Cheap Beer Joint
TTITLE16=Bad Reputation
TTITLE17=Boogie Ride
TTITLE18=Blood Money
TTITLE19=That Hypnotizin' Boogie
TTITLE20=Play On Your Harp
EXTD=YEAR: 1987
EXTT0=
EXTT1=
EXTT2=
EXTT3=
EXTT4=
EXTT5=
EXTT6=
EXTT7=
EXTT8=
EXTT9=
EXTT10=
EXTT11=
EXTT12=
EXTT13=
EXTT14=
EXTT15=
EXTT16=
EXTT17=
EXTT18=
EXTT19=
EXTT20=
PLAYORDER=
